TITLE ""
FILE "LR_black_phrase_A07.mp3" MP3
  TRACK 01 AUDIO
    TITLE "LR_black_phrase_A07_001"
    INDEX 01 00:00:00
  TRACK 02 AUDIO
    TITLE "LR_black_phrase_A07_002"
    INDEX 01 00:00:14
  TRACK 03 AUDIO
    TITLE "LR_black_phrase_A07_003"
    INDEX 01 00:01:45
  TRACK 04 AUDIO
    TITLE "LR_black_phrase_A07_004"
    INDEX 01 00:02:09
  TRACK 05 AUDIO
    TITLE "LR_black_phrase_A07_005"
    INDEX 01 00:04:41
  TRACK 06 AUDIO
    TITLE "LR_black_phrase_A07_006"
    INDEX 01 00:05:39
  TRACK 07 AUDIO
    TITLE "LR_black_phrase_A07_007"
    INDEX 01 00:07:55
  TRACK 08 AUDIO
    TITLE "LR_black_phrase_A07_008"
    INDEX 01 00:08:20
  TRACK 09 AUDIO
    TITLE "LR_black_phrase_A07_009"
    INDEX 01 00:10:42
  TRACK 10 AUDIO
    TITLE "LR_black_phrase_A07_010"
    INDEX 01 00:10:71
  TRACK 11 AUDIO
    TITLE "LR_black_phrase_A07_011"
    INDEX 01 00:13:19
  TRACK 12 AUDIO
    TITLE "LR_black_phrase_A07_012"
    INDEX 01 00:14:24
  TRACK 13 AUDIO
    TITLE "LR_black_phrase_A07_013"
    INDEX 01 00:15:51
  TRACK 14 AUDIO
    TITLE "LR_black_phrase_A07_014"
    INDEX 01 00:16:15
  TRACK 15 AUDIO
    TITLE "LR_black_phrase_A07_015"
    INDEX 01 00:20:01
  TRACK 16 AUDIO
    TITLE "LR_black_phrase_A07_016"
    INDEX 01 00:21:01
  TRACK 17 AUDIO
    TITLE "LR_black_phrase_A07_017"
    INDEX 01 00:23:62
  TRACK 18 AUDIO
    TITLE "LR_black_phrase_A07_018"
    INDEX 01 00:24:30
  TRACK 19 AUDIO
    TITLE "LR_black_phrase_A07_019"
    INDEX 01 00:26:72
  TRACK 20 AUDIO
    TITLE "LR_black_phrase_A07_020"
    INDEX 01 00:27:27
  TRACK 21 AUDIO
    TITLE "LR_black_phrase_A07_021"
    INDEX 01 00:29:71
  TRACK 22 AUDIO
    TITLE "LR_black_phrase_A07_022"
    INDEX 01 00:31:01
  TRACK 23 AUDIO
    TITLE "LR_black_phrase_A07_023"
    INDEX 01 00:32:42
  TRACK 24 AUDIO
    TITLE "LR_black_phrase_A07_024"
    INDEX 01 00:33:08
  TRACK 25 AUDIO
    TITLE "LR_black_phrase_A07_025"
    INDEX 01 00:35:50
  TRACK 26 AUDIO
    TITLE "LR_black_phrase_A07_026"
    INDEX 01 00:36:49
  TRACK 27 AUDIO
    TITLE "LR_black_phrase_A07_027"
    INDEX 01 00:38:25
  TRACK 28 AUDIO
    TITLE "LR_black_phrase_A07_028"
    INDEX 01 00:38:64
  TRACK 29 AUDIO
    TITLE "LR_black_phrase_A07_029"
    INDEX 01 00:41:05
  TRACK 30 AUDIO
    TITLE "LR_black_phrase_A07_030"
    INDEX 01 00:41:35
  TRACK 31 AUDIO
    TITLE "LR_black_phrase_A07_031"
    INDEX 01 00:43:51
  TRACK 32 AUDIO
    TITLE "LR_black_phrase_A07_032"
    INDEX 01 00:44:49
  TRACK 33 AUDIO
    TITLE "LR_black_phrase_A07_033"
    INDEX 01 00:45:70
  TRACK 34 AUDIO
    TITLE "LR_black_phrase_A07_034"
    INDEX 01 00:46:30
  TRACK 35 AUDIO
    TITLE "LR_black_phrase_A07_035"
    INDEX 01 00:49:62
  TRACK 36 AUDIO
    TITLE "LR_black_phrase_A07_036"
    INDEX 01 00:50:59
  TRACK 37 AUDIO
    TITLE "LR_black_phrase_A07_037"
    INDEX 01 00:53:28
  TRACK 38 AUDIO
    TITLE "LR_black_phrase_A07_038"
    INDEX 01 00:53:61
  TRACK 39 AUDIO
    TITLE "LR_black_phrase_A07_039"
    INDEX 01 00:56:38
  TRACK 40 AUDIO
    TITLE "LR_black_phrase_A07_040"
    INDEX 01 00:56:60
  TRACK 41 AUDIO
    TITLE "LR_black_phrase_A07_041"
    INDEX 01 00:59:37
  TRACK 42 AUDIO
    TITLE "LR_black_phrase_A07_042"
    INDEX 01 01:00:32
  TRACK 43 AUDIO
    TITLE "LR_black_phrase_A07_043"
    INDEX 01 01:01:47
  TRACK 44 AUDIO
    TITLE "LR_black_phrase_A07_044"
    INDEX 01 01:02:04
  TRACK 45 AUDIO
    TITLE "LR_black_phrase_A07_045"
    INDEX 01 01:05:00
  TRACK 46 AUDIO
    TITLE "LR_black_phrase_A07_046"
    INDEX 01 01:05:74
  TRACK 47 AUDIO
    TITLE "LR_black_phrase_A07_047"
    INDEX 01 01:07:69
  TRACK 48 AUDIO
    TITLE "LR_black_phrase_A07_048"
    INDEX 01 01:08:28
  TRACK 49 AUDIO
    TITLE "LR_black_phrase_A07_049"
    INDEX 01 01:11:04
  TRACK 50 AUDIO
    TITLE "LR_black_phrase_A07_050"
    INDEX 01 01:11:22
  TRACK 51 AUDIO
    TITLE "LR_black_phrase_A07_051"
    INDEX 01 01:13:74
  TRACK 52 AUDIO
    TITLE "LR_black_phrase_A07_052"
    INDEX 01 01:14:67
  TRACK 53 AUDIO
    TITLE "LR_black_phrase_A07_053"
    INDEX 01 01:16:27
  TRACK 54 AUDIO
    TITLE "LR_black_phrase_A07_054"
    INDEX 01 01:16:60
  TRACK 55 AUDIO
    TITLE "LR_black_phrase_A07_055"
    INDEX 01 01:19:37
  TRACK 56 AUDIO
    TITLE "LR_black_phrase_A07_056"
    INDEX 01 01:20:37
  TRACK 57 AUDIO
    TITLE "LR_black_phrase_A07_057"
    INDEX 01 01:23:12
  TRACK 58 AUDIO
    TITLE "LR_black_phrase_A07_058"
    INDEX 01 01:23:47
  TRACK 59 AUDIO
    TITLE "LR_black_phrase_A07_059"
    INDEX 01 01:26:08
  TRACK 60 AUDIO
    TITLE "LR_black_phrase_A07_060"
    INDEX 01 01:26:30
  TRACK 61 AUDIO
    TITLE "LR_black_phrase_A07_061"
    INDEX 01 01:28:64
  TRACK 62 AUDIO
    TITLE "LR_black_phrase_A07_062"
    INDEX 01 01:29:61
  TRACK 63 AUDIO
    TITLE "LR_black_phrase_A07_063"
    INDEX 01 01:30:68
  TRACK 64 AUDIO
    TITLE "LR_black_phrase_A07_064"
    INDEX 01 01:31:33
  TRACK 65 AUDIO
    TITLE "LR_black_phrase_A07_065"
    INDEX 01 01:34:06
  TRACK 66 AUDIO
    TITLE "LR_black_phrase_A07_066"
    INDEX 01 01:35:05
  TRACK 67 AUDIO
    TITLE "LR_black_phrase_A07_067"
    INDEX 01 01:37:22
  TRACK 68 AUDIO
    TITLE "LR_black_phrase_A07_068"
    INDEX 01 01:37:63
  TRACK 69 AUDIO
    TITLE "LR_black_phrase_A07_069"
    INDEX 01 01:39:62
  TRACK 70 AUDIO
    TITLE "LR_black_phrase_A07_070"
    INDEX 01 01:40:14
  TRACK 71 AUDIO
    TITLE "LR_black_phrase_A07_071"
    INDEX 01 01:42:15
  TRACK 72 AUDIO
    TITLE "LR_black_phrase_A07_072"
    INDEX 01 01:43:16
  TRACK 73 AUDIO
    TITLE "LR_black_phrase_A07_073"
    INDEX 01 01:44:43
  TRACK 74 AUDIO
    TITLE "LR_black_phrase_A07_074"
    INDEX 01 01:45:09
  TRACK 75 AUDIO
    TITLE "LR_black_phrase_A07_075"
    INDEX 01 01:48:60
  TRACK 76 AUDIO
    TITLE "LR_black_phrase_A07_076"
    INDEX 01 01:49:62
  TRACK 77 AUDIO
    TITLE "LR_black_phrase_A07_077"
    INDEX 01 01:51:39
  TRACK 78 AUDIO
    TITLE "LR_black_phrase_A07_078"
    INDEX 01 01:52:03
  TRACK 79 AUDIO
    TITLE "LR_black_phrase_A07_079"
    INDEX 01 01:54:10
  TRACK 80 AUDIO
    TITLE "LR_black_phrase_A07_080"
    INDEX 01 01:54:40
  TRACK 81 AUDIO
    TITLE "LR_black_phrase_A07_081"
    INDEX 01 01:56:44
  TRACK 82 AUDIO
    TITLE "LR_black_phrase_A07_082"
    INDEX 01 01:57:50
  TRACK 83 AUDIO
    TITLE "LR_black_phrase_A07_083"
    INDEX 01 01:59:04
  TRACK 84 AUDIO
    TITLE "LR_black_phrase_A07_084"
    INDEX 01 01:59:45
  TRACK 85 AUDIO
    TITLE "LR_black_phrase_A07_085"
    INDEX 01 02:00:73
  TRACK 86 AUDIO
    TITLE "LR_black_phrase_A07_086"
    INDEX 01 02:02:00
  TRACK 87 AUDIO
    TITLE "LR_black_phrase_A07_087"
    INDEX 01 02:03:72
  TRACK 88 AUDIO
    TITLE "LR_black_phrase_A07_088"
    INDEX 01 02:04:38
  TRACK 89 AUDIO
    TITLE "LR_black_phrase_A07_089"
    INDEX 01 02:06:39
  TRACK 90 AUDIO
    TITLE "LR_black_phrase_A07_090"
    INDEX 01 02:06:66
  TRACK 91 AUDIO
    TITLE "LR_black_phrase_A07_091"
    INDEX 01 02:08:69
  TRACK 92 AUDIO
    TITLE "LR_black_phrase_A07_092"
    INDEX 01 02:09:65
  TRACK 93 AUDIO
    TITLE "LR_black_phrase_A07_093"
    INDEX 01 02:11:03
  TRACK 94 AUDIO
    TITLE "LR_black_phrase_A07_094"
    INDEX 01 02:11:44
  TRACK 95 AUDIO
    TITLE "LR_black_phrase_A07_095"
    INDEX 01 02:14:34
  TRACK 96 AUDIO
    TITLE "LR_black_phrase_A07_096"
    INDEX 01 02:15:34
  TRACK 97 AUDIO
    TITLE "LR_black_phrase_A07_097"
    INDEX 01 02:17:70
  TRACK 98 AUDIO
    TITLE "LR_black_phrase_A07_098"
    INDEX 01 02:18:30
  TRACK 99 AUDIO
    TITLE "LR_black_phrase_A07_099"
    INDEX 01 02:20:64
  TRACK 100 AUDIO
    TITLE "LR_black_phrase_A07_100"
    INDEX 01 02:21:11
  TRACK 101 AUDIO
    TITLE "LR_black_phrase_A07_101"
    INDEX 01 02:23:47
  TRACK 102 AUDIO
    TITLE "LR_black_phrase_A07_102"
    INDEX 01 02:24:45
  TRACK 103 AUDIO
    TITLE "LR_black_phrase_A07_103"
    INDEX 01 02:25:60
  TRACK 104 AUDIO
    TITLE "LR_black_phrase_A07_104"
    INDEX 01 02:26:22
  TRACK 105 AUDIO
    TITLE "LR_black_phrase_A07_105"
    INDEX 01 02:27:53
  TRACK 106 AUDIO
    TITLE "LR_black_phrase_A07_106"
    INDEX 01 02:28:54
  TRACK 107 AUDIO
    TITLE "LR_black_phrase_A07_107"
    INDEX 01 02:30:43
  TRACK 108 AUDIO
    TITLE "LR_black_phrase_A07_108"
    INDEX 01 02:31:05
  TRACK 109 AUDIO
    TITLE "LR_black_phrase_A07_109"
    INDEX 01 02:32:60
  TRACK 110 AUDIO
    TITLE "LR_black_phrase_A07_110"
    INDEX 01 02:33:04
  TRACK 111 AUDIO
    TITLE "LR_black_phrase_A07_111"
    INDEX 01 02:34:63
  TRACK 112 AUDIO
    TITLE "LR_black_phrase_A07_112"
    INDEX 01 02:35:54
  TRACK 113 AUDIO
    TITLE "LR_black_phrase_A07_113"
    INDEX 01 02:37:02
  TRACK 114 AUDIO
    TITLE "LR_black_phrase_A07_114"
    INDEX 01 02:37:39
  TRACK 115 AUDIO
    TITLE "LR_black_phrase_A07_115"
    INDEX 01 02:39:32
  TRACK 116 AUDIO
    TITLE "LR_black_phrase_A07_116"
    INDEX 01 02:40:26
  TRACK 117 AUDIO
    TITLE "LR_black_phrase_A07_117"
    INDEX 01 02:42:70
  TRACK 118 AUDIO
    TITLE "LR_black_phrase_A07_118"
    INDEX 01 02:43:30
  TRACK 119 AUDIO
    TITLE "LR_black_phrase_A07_119"
    INDEX 01 02:45:49
  TRACK 120 AUDIO
    TITLE "LR_black_phrase_A07_120"
    INDEX 01 02:45:70
  TRACK 121 AUDIO
    TITLE "LR_black_phrase_A07_121"
    INDEX 01 02:48:16
  TRACK 122 AUDIO
    TITLE "LR_black_phrase_A07_122"
    INDEX 01 02:49:15
  TRACK 123 AUDIO
    TITLE "LR_black_phrase_A07_123"
    INDEX 01 02:50:46
  TRACK 124 AUDIO
    TITLE "LR_black_phrase_A07_124"
    INDEX 01 02:51:04
  TRACK 125 AUDIO
    TITLE "LR_black_phrase_A07_125"
    INDEX 01 02:56:43
  TRACK 126 AUDIO
    TITLE "LR_black_phrase_A07_126"
    INDEX 01 02:57:44
  TRACK 127 AUDIO
    TITLE "LR_black_phrase_A07_127"
    INDEX 01 02:59:06
  TRACK 128 AUDIO
    TITLE "LR_black_phrase_A07_128"
    INDEX 01 02:59:37
  TRACK 129 AUDIO
    TITLE "LR_black_phrase_A07_129"
    INDEX 01 03:01:09
  TRACK 130 AUDIO
    TITLE "LR_black_phrase_A07_130"
    INDEX 01 03:01:28
  TRACK 131 AUDIO
    TITLE "LR_black_phrase_A07_131"
    INDEX 01 03:03:00
  TRACK 132 AUDIO
    TITLE "LR_black_phrase_A07_132"
    INDEX 01 03:04:07
  TRACK 133 AUDIO
    TITLE "LR_black_phrase_A07_133"
    INDEX 01 03:05:36
  TRACK 134 AUDIO
    TITLE "LR_black_phrase_A07_134"
    INDEX 01 03:06:02
  TRACK 135 AUDIO
    TITLE "LR_black_phrase_A07_135"
    INDEX 01 03:08:30
  TRACK 136 AUDIO
    TITLE "LR_black_phrase_A07_136"
    INDEX 01 03:09:33
  TRACK 137 AUDIO
    TITLE "LR_black_phrase_A07_137"
    INDEX 01 03:11:38
  TRACK 138 AUDIO
    TITLE "LR_black_phrase_A07_138"
    INDEX 01 03:12:04
  TRACK 139 AUDIO
    TITLE "LR_black_phrase_A07_139"
    INDEX 01 03:14:29
  TRACK 140 AUDIO
    TITLE "LR_black_phrase_A07_140"
    INDEX 01 03:14:62
  TRACK 141 AUDIO
    TITLE "LR_black_phrase_A07_141"
    INDEX 01 03:17:11
  TRACK 142 AUDIO
    TITLE "LR_black_phrase_A07_142"
    INDEX 01 03:18:17
  TRACK 143 AUDIO
    TITLE "LR_black_phrase_A07_143"
    INDEX 01 03:19:36
  TRACK 144 AUDIO
    TITLE "LR_black_phrase_A07_144"
    INDEX 01 03:20:00
  TRACK 145 AUDIO
    TITLE "LR_black_phrase_A07_145"
    INDEX 01 03:21:03
  TRACK 146 AUDIO
    TITLE "LR_black_phrase_A07_146"
    INDEX 01 03:22:03
  TRACK 147 AUDIO
    TITLE "LR_black_phrase_A07_147"
    INDEX 01 03:24:41
  TRACK 148 AUDIO
    TITLE "LR_black_phrase_A07_148"
    INDEX 01 03:25:07
  TRACK 149 AUDIO
    TITLE "LR_black_phrase_A07_149"
    INDEX 01 03:27:22
  TRACK 150 AUDIO
    TITLE "LR_black_phrase_A07_150"
    INDEX 01 03:27:53
  TRACK 151 AUDIO
    TITLE "LR_black_phrase_A07_151"
    INDEX 01 03:29:69
  TRACK 152 AUDIO
    TITLE "LR_black_phrase_A07_152"
    INDEX 01 03:30:69
  TRACK 153 AUDIO
    TITLE "LR_black_phrase_A07_153"
    INDEX 01 03:32:05
  TRACK 154 AUDIO
    TITLE "LR_black_phrase_A07_154"
    INDEX 01 03:32:52
  TRACK 155 AUDIO
    TITLE "LR_black_phrase_A07_155"
    INDEX 01 03:34:43
  TRACK 156 AUDIO
    TITLE "LR_black_phrase_A07_156"
    INDEX 01 03:35:45
  TRACK 157 AUDIO
    TITLE "LR_black_phrase_A07_157"
    INDEX 01 03:37:32
  TRACK 158 AUDIO
    TITLE "LR_black_phrase_A07_158"
    INDEX 01 03:37:65
  TRACK 159 AUDIO
    TITLE "LR_black_phrase_A07_159"
    INDEX 01 03:39:72
  TRACK 160 AUDIO
    TITLE "LR_black_phrase_A07_160"
    INDEX 01 03:40:16
  TRACK 161 AUDIO
    TITLE "LR_black_phrase_A07_161"
    INDEX 01 03:42:25
  TRACK 162 AUDIO
    TITLE "LR_black_phrase_A07_162"
    INDEX 01 03:43:19
  TRACK 163 AUDIO
    TITLE "LR_black_phrase_A07_163"
    INDEX 01 03:44:44
  TRACK 164 AUDIO
    TITLE "LR_black_phrase_A07_164"
    INDEX 01 03:45:04
  TRACK 165 AUDIO
    TITLE "LR_black_phrase_A07_165"
    INDEX 01 03:47:46
  TRACK 166 AUDIO
    TITLE "LR_black_phrase_A07_166"
    INDEX 01 03:48:45
  TRACK 167 AUDIO
    TITLE "LR_black_phrase_A07_167"
    INDEX 01 03:50:74
  TRACK 168 AUDIO
    TITLE "LR_black_phrase_A07_168"
    INDEX 01 03:51:32
  TRACK 169 AUDIO
    TITLE "LR_black_phrase_A07_169"
    INDEX 01 03:54:09
  TRACK 170 AUDIO
    TITLE "LR_black_phrase_A07_170"
    INDEX 01 03:54:30
  TRACK 171 AUDIO
    TITLE "LR_black_phrase_A07_171"
    INDEX 01 03:57:07
  TRACK 172 AUDIO
    TITLE "LR_black_phrase_A07_172"
    INDEX 01 03:58:03
  TRACK 173 AUDIO
    TITLE "LR_black_phrase_A07_173"
    INDEX 01 03:59:24
  TRACK 174 AUDIO
    TITLE "LR_black_phrase_A07_174"
    INDEX 01 03:59:61
  TRACK 175 AUDIO
    TITLE "LR_black_phrase_A07_175"
    INDEX 01 04:01:44
  TRACK 176 AUDIO
    TITLE "LR_black_phrase_A07_176"
    INDEX 01 04:02:45
  TRACK 177 AUDIO
    TITLE "LR_black_phrase_A07_177"
    INDEX 01 04:04:31
  TRACK 178 AUDIO
    TITLE "LR_black_phrase_A07_178"
    INDEX 01 04:04:62
  TRACK 179 AUDIO
    TITLE "LR_black_phrase_A07_179"
    INDEX 01 04:07:17
  TRACK 180 AUDIO
    TITLE "LR_black_phrase_A07_180"
    INDEX 01 04:07:43
  TRACK 181 AUDIO
    TITLE "LR_black_phrase_A07_181"
    INDEX 01 04:09:71
  TRACK 182 AUDIO
    TITLE "LR_black_phrase_A07_182"
    INDEX 01 04:11:03
  TRACK 183 AUDIO
    TITLE "LR_black_phrase_A07_183"
    INDEX 01 04:12:20
  TRACK 184 AUDIO
    TITLE "LR_black_phrase_A07_184"
    INDEX 01 04:12:60
  TRACK 185 AUDIO
    TITLE "LR_black_phrase_A07_185"
    INDEX 01 04:15:15
  TRACK 186 AUDIO
    TITLE "LR_black_phrase_A07_186"
    INDEX 01 04:16:12
  TRACK 187 AUDIO
    TITLE "LR_black_phrase_A07_187"
    INDEX 01 04:18:15
  TRACK 188 AUDIO
    TITLE "LR_black_phrase_A07_188"
    INDEX 01 04:18:54
  TRACK 189 AUDIO
    TITLE "LR_black_phrase_A07_189"
    INDEX 01 04:21:27
  TRACK 190 AUDIO
    TITLE "LR_black_phrase_A07_190"
    INDEX 01 04:21:58
  TRACK 191 AUDIO
    TITLE "LR_black_phrase_A07_191"
    INDEX 01 04:24:29
  TRACK 192 AUDIO
    TITLE "LR_black_phrase_A07_192"
    INDEX 01 04:25:35
  TRACK 193 AUDIO
    TITLE "LR_black_phrase_A07_193"
    INDEX 01 04:26:42
  TRACK 194 AUDIO
    TITLE "LR_black_phrase_A07_194"
    INDEX 01 04:27:06
  TRACK 195 AUDIO
    TITLE "LR_black_phrase_A07_195"
    INDEX 01 04:29:01
  TRACK 196 AUDIO
    TITLE "LR_black_phrase_A07_196"
    INDEX 01 04:29:74
  TRACK 197 AUDIO
    TITLE "LR_black_phrase_A07_197"
    INDEX 01 04:32:37
  TRACK 198 AUDIO
    TITLE "LR_black_phrase_A07_198"
    INDEX 01 04:32:74
  TRACK 199 AUDIO
    TITLE "LR_black_phrase_A07_199"
    INDEX 01 04:34:69
  TRACK 200 AUDIO
    TITLE "LR_black_phrase_A07_200"
    INDEX 01 04:35:25
  TRACK 201 AUDIO
    TITLE "LR_black_phrase_A07_201"
    INDEX 01 04:37:18
  TRACK 202 AUDIO
    TITLE "LR_black_phrase_A07_202"
    INDEX 01 04:38:26
  TRACK 203 AUDIO
    TITLE "LR_black_phrase_A07_203"
    INDEX 01 04:39:54
  TRACK 204 AUDIO
    TITLE "LR_black_phrase_A07_204"
    INDEX 01 04:40:21
  TRACK 205 AUDIO
    TITLE "LR_black_phrase_A07_205"
    INDEX 01 04:42:59
  TRACK 206 AUDIO
    TITLE "LR_black_phrase_A07_206"
    INDEX 01 04:43:56
  TRACK 207 AUDIO
    TITLE "LR_black_phrase_A07_207"
    INDEX 01 04:45:20
  TRACK 208 AUDIO
    TITLE "LR_black_phrase_A07_208"
    INDEX 01 04:45:59
  TRACK 209 AUDIO
    TITLE "LR_black_phrase_A07_209"
    INDEX 01 04:47:52
  TRACK 210 AUDIO
    TITLE "LR_black_phrase_A07_210"
    INDEX 01 04:48:06
  TRACK 211 AUDIO
    TITLE "LR_black_phrase_A07_211"
    INDEX 01 04:50:01
  TRACK 212 AUDIO
    TITLE "LR_black_phrase_A07_212"
    INDEX 01 04:51:05
  TRACK 213 AUDIO
    TITLE "LR_black_phrase_A07_213"
    INDEX 01 04:52:36
  TRACK 214 AUDIO
    TITLE "LR_black_phrase_A07_214"
    INDEX 01 04:52:69
  TRACK 215 AUDIO
    TITLE "LR_black_phrase_A07_215"
    INDEX 01 04:55:59
  TRACK 216 AUDIO
    TITLE "LR_black_phrase_A07_216"
    INDEX 01 04:56:59
  TRACK 217 AUDIO
    TITLE "LR_black_phrase_A07_217"
    INDEX 01 04:59:28
  TRACK 218 AUDIO
    TITLE "LR_black_phrase_A07_218"
    INDEX 01 04:59:63
  TRACK 219 AUDIO
    TITLE "LR_black_phrase_A07_219"
    INDEX 01 05:01:70
  TRACK 220 AUDIO
    TITLE "LR_black_phrase_A07_220"
    INDEX 01 05:02:14
  TRACK 221 AUDIO
    TITLE "LR_black_phrase_A07_221"
    INDEX 01 05:04:23
  TRACK 222 AUDIO
    TITLE "LR_black_phrase_A07_222"
    INDEX 01 05:05:17
  TRACK 223 AUDIO
    TITLE "LR_black_phrase_A07_223"
    INDEX 01 05:06:40
  TRACK 224 AUDIO
    TITLE "LR_black_phrase_A07_224"
    INDEX 01 05:07:06
  TRACK 225 AUDIO
    TITLE "LR_black_phrase_A07_225"
    INDEX 01 05:08:60
  TRACK 226 AUDIO
    TITLE "LR_black_phrase_A07_226"
    INDEX 01 05:09:59
  TRACK 227 AUDIO
    TITLE "LR_black_phrase_A07_227"
    INDEX 01 05:12:40
  TRACK 228 AUDIO
    TITLE "LR_black_phrase_A07_228"
    INDEX 01 05:13:00
  TRACK 229 AUDIO
    TITLE "LR_black_phrase_A07_229"
    INDEX 01 05:15:11
  TRACK 230 AUDIO
    TITLE "LR_black_phrase_A07_230"
    INDEX 01 05:15:33
  TRACK 231 AUDIO
    TITLE "LR_black_phrase_A07_231"
    INDEX 01 05:17:45
  TRACK 232 AUDIO
    TITLE "LR_black_phrase_A07_232"
    INDEX 01 05:18:41
  TRACK 233 AUDIO
    TITLE "LR_black_phrase_A07_233"
    INDEX 01 05:19:72
  TRACK 234 AUDIO
    TITLE "LR_black_phrase_A07_234"
    INDEX 01 05:20:34
  TRACK 235 AUDIO
    TITLE "LR_black_phrase_A07_235"
    INDEX 01 05:21:31
  TRACK 236 AUDIO
    TITLE "LR_black_phrase_A07_236"
    INDEX 01 05:22:29
  TRACK 237 AUDIO
    TITLE "LR_black_phrase_A07_237"
    INDEX 01 05:24:26
  TRACK 238 AUDIO
    TITLE "LR_black_phrase_A07_238"
    INDEX 01 05:24:63
  TRACK 239 AUDIO
    TITLE "LR_black_phrase_A07_239"
    INDEX 01 05:27:26
  TRACK 240 AUDIO
    TITLE "LR_black_phrase_A07_240"
    INDEX 01 05:27:52
  TRACK 241 AUDIO
    TITLE "LR_black_phrase_A07_241"
    INDEX 01 05:30:13
  TRACK 242 AUDIO
    TITLE "LR_black_phrase_A07_242"
    INDEX 01 05:31:14
  TRACK 243 AUDIO
    TITLE "LR_black_phrase_A07_243"
    INDEX 01 05:32:35
  TRACK 244 AUDIO
    TITLE "LR_black_phrase_A07_244"
    INDEX 01 05:32:74
  TRACK 245 AUDIO
    TITLE "LR_black_phrase_A07_245"
    INDEX 01 05:35:02
  TRACK 246 AUDIO
    TITLE "LR_black_phrase_A07_246"
    INDEX 01 05:36:00
  TRACK 247 AUDIO
    TITLE "LR_black_phrase_A07_247"
    INDEX 01 05:37:32
  TRACK 248 AUDIO
    TITLE "LR_black_phrase_A07_248"
    INDEX 01 05:37:73
  TRACK 249 AUDIO
    TITLE "LR_black_phrase_A07_249"
    INDEX 01 05:40:19
  TRACK 250 AUDIO
    TITLE "LR_black_phrase_A07_250"
    INDEX 01 05:40:50
  TRACK 251 AUDIO
    TITLE "LR_black_phrase_A07_251"
    INDEX 01 05:42:71
  TRACK 252 AUDIO
    TITLE "LR_black_phrase_A07_252"
    INDEX 01 05:44:01
  TRACK 253 AUDIO
    TITLE "LR_black_phrase_A07_253"
    INDEX 01 05:45:28
  TRACK 254 AUDIO
    TITLE "LR_black_phrase_A07_254"
    INDEX 01 05:45:67
  TRACK 255 AUDIO
    TITLE "LR_black_phrase_A07_255"
    INDEX 01 05:48:54
  TRACK 256 AUDIO
    TITLE "LR_black_phrase_A07_256"
    INDEX 01 05:49:55
  TRACK 257 AUDIO
    TITLE "LR_black_phrase_A07_257"
    INDEX 01 05:52:38
  TRACK 258 AUDIO
    TITLE "LR_black_phrase_A07_258"
    INDEX 01 05:53:04
  TRACK 259 AUDIO
    TITLE "LR_black_phrase_A07_259"
    INDEX 01 05:55:40
  TRACK 260 AUDIO
    TITLE "LR_black_phrase_A07_260"
    INDEX 01 05:55:73
  TRACK 261 AUDIO
    TITLE "LR_black_phrase_A07_261"
    INDEX 01 05:58:36
  TRACK 262 AUDIO
    TITLE "LR_black_phrase_A07_262"
    INDEX 01 05:59:42
  TRACK 263 AUDIO
    TITLE "LR_black_phrase_A07_263"
    INDEX 01 06:00:67
  TRACK 264 AUDIO
    TITLE "LR_black_phrase_A07_264"
    INDEX 01 06:01:33
  TRACK 265 AUDIO
    TITLE "LR_black_phrase_A07_265"
    INDEX 01 06:03:08
  TRACK 266 AUDIO
    TITLE "LR_black_phrase_A07_266"
    INDEX 01 06:04:08
  TRACK 267 AUDIO
    TITLE "LR_black_phrase_A07_267"
    INDEX 01 06:06:46
  TRACK 268 AUDIO
    TITLE "LR_black_phrase_A07_268"
    INDEX 01 06:07:10
  TRACK 269 AUDIO
    TITLE "LR_black_phrase_A07_269"
    INDEX 01 06:09:58
  TRACK 270 AUDIO
    TITLE "LR_black_phrase_A07_270"
    INDEX 01 06:10:12
  TRACK 271 AUDIO
    TITLE "LR_black_phrase_A07_271"
    INDEX 01 06:12:60
  TRACK 272 AUDIO
    TITLE "LR_black_phrase_A07_272"
    INDEX 01 06:13:59
  TRACK 273 AUDIO
    TITLE "LR_black_phrase_A07_273"
    INDEX 01 06:15:04
  TRACK 274 AUDIO
    TITLE "LR_black_phrase_A07_274"
    INDEX 01 06:15:37
  TRACK 275 AUDIO
    TITLE "LR_black_phrase_A07_275"
    INDEX 01 06:16:73
  TRACK 276 AUDIO
    TITLE "LR_black_phrase_A07_276"
    INDEX 01 06:17:67
  TRACK 277 AUDIO
    TITLE "LR_black_phrase_A07_277"
    INDEX 01 06:20:30
  TRACK 278 AUDIO
    TITLE "LR_black_phrase_A07_278"
    INDEX 01 06:20:63
  TRACK 279 AUDIO
    TITLE "LR_black_phrase_A07_279"
    INDEX 01 06:23:46
  TRACK 280 AUDIO
    TITLE "LR_black_phrase_A07_280"
    INDEX 01 06:23:62
  TRACK 281 AUDIO
    TITLE "LR_black_phrase_A07_281"
    INDEX 01 06:26:43
  TRACK 282 AUDIO
    TITLE "LR_black_phrase_A07_282"
    INDEX 01 06:27:36
  TRACK 283 AUDIO
    TITLE "LR_black_phrase_A07_283"
    INDEX 01 06:28:53
  TRACK 284 AUDIO
    TITLE "LR_black_phrase_A07_284"
    INDEX 01 06:29:15
  TRACK 285 AUDIO
    TITLE "LR_black_phrase_A07_285"
    INDEX 01 06:30:42
  TRACK 286 AUDIO
    TITLE "LR_black_phrase_A07_286"
    INDEX 01 06:31:40
  TRACK 287 AUDIO
    TITLE "LR_black_phrase_A07_287"
    INDEX 01 06:34:17
  TRACK 288 AUDIO
    TITLE "LR_black_phrase_A07_288"
    INDEX 01 06:34:52
  TRACK 289 AUDIO
    TITLE "LR_black_phrase_A07_289"
    INDEX 01 06:37:27
  TRACK 290 AUDIO
    TITLE "LR_black_phrase_A07_290"
    INDEX 01 06:37:52
  TRACK 291 AUDIO
    TITLE "LR_black_phrase_A07_291"
    INDEX 01 06:40:27
  TRACK 292 AUDIO
    TITLE "LR_black_phrase_A07_292"
    INDEX 01 06:41:24
  TRACK 293 AUDIO
    TITLE "LR_black_phrase_A07_293"
    INDEX 01 06:42:42
  TRACK 294 AUDIO
    TITLE "LR_black_phrase_A07_294"
    INDEX 01 06:43:02
  TRACK 295 AUDIO
    TITLE "LR_black_phrase_A07_295"
    INDEX 01 06:44:37
  TRACK 296 AUDIO
    TITLE "LR_black_phrase_A07_296"
    INDEX 01 06:45:38
  TRACK 297 AUDIO
    TITLE "LR_black_phrase_A07_297"
    INDEX 01 06:47:62
  TRACK 298 AUDIO
    TITLE "LR_black_phrase_A07_298"
    INDEX 01 06:48:21
  TRACK 299 AUDIO
    TITLE "LR_black_phrase_A07_299"
    INDEX 01 06:50:57
  TRACK 300 AUDIO
    TITLE "LR_black_phrase_A07_300"
    INDEX 01 06:51:05
  TRACK 301 AUDIO
    TITLE "LR_black_phrase_A07_301"
    INDEX 01 06:53:41
